<svg viewBox="144 342 46 46" xmlns="http://www.w3.org/2000/svg" role="img" aria-label="Polypus logo mark">
  <rect x="158" y="344" width="6" height="6" fill="#7C3AED"/>
  <rect x="164" y="344" width="6" height="6" fill="#7C3AED"/>
  <rect x="170" y="344" width="6" height="6" fill="#7C3AED"/>
  <rect x="152" y="350" width="6" height="6" fill="#7C3AED"/>
  <rect x="158" y="350" width="6" height="6" fill="#A855F7"/>
  <rect x="164" y="350" width="6" height="6" fill="#A855F7"/>
  <rect x="170" y="350" width="6" height="6" fill="#A855F7"/>
  <rect x="176" y="350" width="6" height="6" fill="#7C3AED"/>
  <rect x="152" y="356" width="6" height="6" fill="#7C3AED"/>
  <rect x="158" y="356" width="6" height="6" fill="#0A0A0A"/>
  <rect x="164" y="356" width="6" height="6" fill="#A855F7"/>
  <rect x="170" y="356" width="6" height="6" fill="#0A0A0A"/>
  <rect x="176" y="356" width="6" height="6" fill="#7C3AED"/>
  <rect x="152" y="362" width="6" height="6" fill="#7C3AED"/>
  <rect x="158" y="362" width="6" height="6" fill="#A855F7"/>
  <rect x="164" y="362" width="6" height="6" fill="#C084FC"/>
  <rect x="170" y="362" width="6" height="6" fill="#A855F7"/>
  <rect x="176" y="362" width="6" height="6" fill="#7C3AED"/>
  <rect x="158" y="368" width="6" height="6" fill="#7C3AED"/>
  <rect x="164" y="368" width="6" height="6" fill="#A855F7"/>
  <rect x="170" y="368" width="6" height="6" fill="#7C3AED"/>
  <rect x="152" y="374" width="6" height="6" fill="#7C3AED"/>
  <rect x="158" y="374" width="6" height="6" fill="#10B981"/>
  <rect x="164" y="374" width="6" height="6" fill="#A855F7"/>
  <rect x="170" y="374" width="6" height="6" fill="#10B981"/>
  <rect x="176" y="374" width="6" height="6" fill="#7C3AED"/>
  <rect x="146" y="380" width="6" height="6" fill="#6D28D9"/>
  <rect x="152" y="380" width="6" height="6" fill="#059669"/>
  <rect x="158" y="380" width="6" height="6" fill="#7C3AED"/>
  <rect x="164" y="380" width="6" height="6" fill="#6D28D9"/>
  <rect x="170" y="380" width="6" height="6" fill="#7C3AED"/>
  <rect x="176" y="380" width="6" height="6" fill="#059669"/>
  <rect x="182" y="380" width="6" height="6" fill="#6D28D9"/>
</svg>
